External Loads File
version=1
nRows=85
nColumns=13
Range=5.000000e-03-10 seconds
endheader
time 	forceRightX 	forceRightY 	forceRightZ 	pointRightX 	pointRightY 	pointRightZ 	forceLeftX 	forceLeftY 	forceLeftZ 	pointLeftX 	pointLeftY 	pointLeftZ 		
0.005000 -8.341485 111.316499 -0.000000 0.370815 0.466748 -0.108726 3.720607 169.407745 -0.000000 0.162637 0.178739 -0.351113
0.010000 -9.894656 110.241237 -0.000000 0.372070 0.465616 -0.108712 3.987297 170.764023 -0.000000 0.160512 0.179974 -0.351096
0.015000 -11.424231 109.373786 -0.000000 0.373291 0.464594 -0.108715 4.369064 172.385588 -0.000000 0.158448 0.181227 -0.351044
0.020000 -12.330126 108.893511 -0.000000 0.374459 0.463516 -0.108711 5.745579 174.302510 -0.000000 0.155861 0.184270 -0.352049
0.025000 -13.987417 108.732495 -0.000000 0.375831 0.462558 -0.108322 5.827158 176.589683 -0.000000 0.154418 0.183475 -0.351014
0.030000 -14.885500 109.129010 -0.000000 0.376933 0.461448 -0.108425 6.958924 179.148380 -0.000000 0.152516 0.184790 -0.350929
0.035000 -15.578769 110.046605 -0.000000 0.377975 0.460411 -0.108377 8.177385 181.934089 -0.000000 0.150664 0.185878 -0.350925
0.040000 -16.046303 111.484287 -0.000000 0.378955 0.459434 -0.108358 9.457261 184.836772 -0.000000 0.148897 0.187047 -0.350892
0.045000 -16.407994 113.398118 -0.000000 0.379835 0.458506 -0.108296 10.593272 187.778305 -0.000000 0.147228 0.188079 -0.350838
0.050000 -16.747875 115.738099 -0.000000 0.380498 0.457616 -0.108721 11.487661 190.731138 -0.000000 0.145673 0.189029 -0.350805
0.055000 -17.031133 118.462031 -0.000000 0.381174 0.456753 -0.108749 12.239191 193.693146 -0.000000 0.144286 0.189990 -0.350654
0.060000 -17.286510 121.494900 -0.000000 0.381756 0.455998 -0.108767 12.806363 196.666836 -0.000000 0.142964 0.190837 -0.350673
0.065000 -17.486245 124.740187 -0.000000 0.382232 0.455336 -0.108724 13.191460 199.601859 -0.000000 0.141815 0.191610 -0.350623
0.070000 -17.558765 128.094341 -0.000000 0.382629 0.454766 -0.108734 13.419519 202.384392 -0.000000 0.140773 0.192281 -0.350623
0.075000 -17.425043 131.456698 -0.000000 0.382971 0.454166 -0.108727 13.515858 204.875250 -0.000000 0.139883 0.192879 -0.350594
0.080000 -17.119526 134.717934 -0.000000 0.383178 0.453736 -0.108730 13.361993 206.955253 -0.000000 0.139121 0.193416 -0.350583
0.085000 -16.666746 137.788063 -0.000000 0.383231 0.453413 -0.108684 12.900553 208.527694 -0.000000 0.138527 0.193805 -0.350543
0.090000 -15.933637 140.626449 -0.000000 0.383369 0.453100 -0.108711 12.353998 209.528915 -0.000000 0.138001 0.194127 -0.350554
0.095000 -15.087794 143.183838 -0.000000 0.383297 0.452925 -0.108620 11.550098 209.989673 -0.000000 0.137613 0.194356 -0.350608
0.100000 -14.066739 145.443803 -0.000000 0.383246 0.452767 -0.108623 10.709955 209.960020 -0.000000 0.137347 0.194492 -0.350611
0.105000 -12.971125 147.362498 -0.000000 0.383134 0.452714 -0.108643 9.806959 209.489976 -0.000000 0.137196 0.194584 -0.350608
0.110000 -11.836952 148.898378 -0.000000 0.383022 0.452712 -0.108662 8.878447 208.600020 -0.000000 0.137122 0.194609 -0.350627
0.115000 -10.752019 150.011876 -0.000000 0.382881 0.452779 -0.108675 7.888203 207.325723 -0.000000 0.137131 0.194576 -0.350646
0.120000 -9.782557 150.676864 -0.000000 0.382697 0.452890 -0.108710 6.841298 205.719571 -0.000000 0.137201 0.194495 -0.350656
0.125000 -8.982031 150.884274 -0.000000 0.382537 0.453028 -0.108765 5.746645 203.830655 -0.000000 0.137336 0.194376 -0.350685
0.130000 -8.424090 150.649458 -0.000000 0.382383 0.453219 -0.108768 4.573163 201.720333 -0.000000 0.137516 0.194218 -0.350685
0.135000 -8.127936 150.022120 -0.000000 0.382241 0.453390 -0.108782 3.367675 199.483476 -0.000000 0.137738 0.194029 -0.350709
0.140000 -8.120044 149.078066 -0.000000 0.382116 0.453599 -0.108788 2.163196 197.236089 -0.000000 0.137991 0.193838 -0.350712
0.145000 -8.396231 147.907211 -0.000000 0.382017 0.453775 -0.108798 1.006840 195.085846 -0.000000 0.138284 0.193608 -0.350731
0.150000 -8.932277 146.591328 -0.000000 0.381945 0.454002 -0.108809 -0.062032 193.113239 -0.000000 0.138575 0.193433 -0.350752
0.155000 -9.734385 145.188662 -0.000000 0.381927 0.454215 -0.108824 -1.075442 191.359031 -0.000000 0.138872 0.193149 -0.350760
0.160000 -10.754841 143.745112 -0.000000 0.381881 0.454439 -0.108809 -2.022060 189.831905 -0.000000 0.139128 0.192906 -0.350788
0.165000 -11.951714 142.298995 -0.000000 0.381856 0.454660 -0.108846 -2.918512 188.527221 -0.000000 0.139391 0.192715 -0.350808
0.170000 -13.279811 140.887648 -0.000000 0.381828 0.454819 -0.108823 -3.799186 187.421698 -0.000000 0.139628 0.192526 -0.350827
0.175000 -14.696864 139.558796 -0.000000 0.381827 0.454949 -0.108823 -4.720449 186.464323 -0.000000 0.139859 0.192377 -0.350825
0.180000 -16.176675 138.374088 -0.000000 0.381842 0.455045 -0.108853 -5.744351 185.602829 -0.000000 0.140040 0.192226 -0.350831
0.185000 -17.689107 137.398594 -0.000000 0.381886 0.455122 -0.108869 -6.885871 184.819878 -0.000000 0.140181 0.192142 -0.350830
0.190000 -19.249264 136.682177 -0.000000 0.381931 0.455187 -0.108851 -8.193683 184.137911 -0.000000 0.140287 0.192072 -0.350824
0.195000 -20.808217 136.276181 -0.000000 0.382002 0.455200 -0.108850 -9.619730 183.618563 -0.000000 0.140355 0.192073 -0.350819
0.200000 -22.369040 136.224835 -0.000000 0.382102 0.455195 -0.108828 -11.173025 183.349448 -0.000000 0.140377 0.192074 -0.350801
0.205000 -23.872835 136.579669 -0.000000 0.382249 0.455142 -0.108795 -12.770360 183.436059 -0.000000 0.140336 0.192126 -0.350783
0.210000 -25.304302 137.368614 -0.000000 0.382418 0.455026 -0.108745 -14.382987 183.964681 -0.000000 0.140241 0.192208 -0.350764
0.215000 -26.629980 138.592279 -0.000000 0.382624 0.454884 -0.108692 -15.949236 184.974297 -0.000000 0.140088 0.192387 -0.350738
0.220000 -27.828476 140.219729 -0.000000 0.382871 0.454636 -0.108658 -17.411095 186.453072 -0.000000 0.139865 0.192576 -0.350720
0.225000 -28.901047 142.188294 -0.000000 0.383149 0.454353 -0.108628 -18.720156 188.363495 -0.000000 0.139541 0.192795 -0.350698
0.230000 -29.891431 144.401815 -0.000000 0.383417 0.454054 -0.108576 -19.868903 190.645051 -0.000000 0.139198 0.193093 -0.350667
0.235000 -30.805151 146.775240 -0.000000 0.383712 0.453749 -0.108587 -20.813541 193.217608 -0.000000 0.138783 0.193462 -0.350642
0.240000 -31.688204 149.255604 -0.000000 0.384017 0.453395 -0.108568 -21.587613 195.996185 -0.000000 0.138292 0.193788 -0.350623
0.245000 -32.530868 151.846108 -0.000000 0.384314 0.452985 -0.108548 -22.164266 198.934888 -0.000000 0.137730 0.194174 -0.350631
0.250000 -33.344373 154.565159 -0.000000 0.384651 0.452494 -0.108509 -22.566730 202.007093 -0.000000 0.137138 0.194588 -0.350632
0.255000 -34.210961 157.401115 -0.000000 0.384998 0.452123 -0.108465 -22.930392 205.180610 -0.000000 0.136522 0.195038 -0.350597
0.260000 -35.080703 160.329317 -0.000000 0.385356 0.451682 -0.108435 -23.210565 208.446889 -0.000000 0.135832 0.195480 -0.350603
0.265000 -35.949716 163.281001 -0.000000 0.385720 0.451235 -0.108404 -23.418745 211.791487 -0.000000 0.135088 0.195973 -0.350602
0.270000 -36.794829 166.186906 -0.000000 0.386059 0.450719 -0.108370 -23.549451 215.194085 -0.000000 0.134342 0.196481 -0.350612
0.275000 -37.606946 168.988107 -0.000000 0.386389 0.450215 -0.108351 -23.605320 218.616816 -0.000000 0.133577 0.196953 -0.350555
0.280000 -38.324000 171.656863 -0.000000 0.386720 0.449724 -0.108297 -23.509621 222.009673 -0.000000 0.132770 0.197478 -0.350574
0.285000 -38.939631 174.172665 -0.000000 0.387038 0.449183 -0.108239 -23.269440 225.312028 -0.000000 0.131949 0.197988 -0.350575
0.290000 -39.485997 176.522815 -0.000000 0.387343 0.448724 -0.108293 -22.948897 228.485889 -0.000000 0.131169 0.198526 -0.350551
0.295000 -39.934919 178.721538 -0.000000 0.387609 0.448219 -0.108280 -22.528242 231.521265 -0.000000 0.130350 0.198989 -0.350557
0.300000 -40.296523 180.780862 -0.000000 0.387881 0.447736 -0.108289 -22.037711 234.389446 -0.000000 0.129552 0.199492 -0.350551
0.305000 -40.613885 182.705141 -0.000000 0.388134 0.447258 -0.108268 -21.556947 237.044687 -0.000000 0.128783 0.200026 -0.350542
0.310000 -40.997854 184.488196 -0.000000 0.388374 0.446858 -0.108264 -21.262975 239.442768 -0.000000 0.128044 0.200418 -0.350548
0.315000 -41.328037 186.186024 -0.000000 0.388594 0.446416 -0.108179 -21.041630 241.584887 -0.000000 0.127316 0.200837 -0.350569
0.320000 -41.624605 187.822468 -0.000000 0.388794 0.446012 -0.108165 -20.955942 243.468336 -0.000000 0.126612 0.201248 -0.350539
0.325000 -41.903056 189.401237 -0.000000 0.388961 0.445676 -0.108111 -21.043434 245.085441 -0.000000 0.125934 0.201615 -0.350527
0.330000 -42.123810 190.914346 -0.000000 0.389084 0.445344 -0.108090 -21.243544 246.428013 -0.000000 0.125309 0.202025 -0.350545
0.335000 -42.356332 192.322743 -0.000000 0.389201 0.445037 -0.108087 -21.606093 247.491890 -0.000000 0.124741 0.202323 -0.350577
0.340000 -42.600222 193.610720 -0.000000 0.389253 0.444781 -0.108032 -22.067179 248.305852 -0.000000 0.124199 0.202571 -0.350553
0.345000 -42.761293 194.792284 -0.000000 0.389297 0.444523 -0.108070 -22.446773 248.918824 -0.000000 0.123668 0.202854 -0.350527
0.350000 -42.924251 195.846843 -0.000000 0.389300 0.444318 -0.108023 -22.825823 249.345405 -0.000000 0.123180 0.203038 -0.350560
0.355000 -42.981853 196.794109 -0.000000 0.389293 0.444117 -0.108001 -23.058707 249.610914 -0.000000 0.122721 0.203285 -0.350593
0.360000 -43.006092 197.603654 -0.000000 0.389306 0.443993 -0.108028 -23.216320 249.733238 -0.000000 0.122288 0.203499 -0.350604
0.365000 -42.989500 198.251461 -0.000000 0.389377 0.443858 -0.108117 -23.267553 249.752777 -0.000000 0.121899 0.203652 -0.350604
0.370000 -42.964693 198.704917 -0.000000 0.389363 0.443753 -0.108107 -23.267245 249.690736 -0.000000 0.121435 0.203776 -0.350637
0.375000 -42.960401 198.942557 -0.000000 0.389331 0.443655 -0.108085 -23.298983 249.545793 -0.000000 0.121079 0.203904 -0.350647
0.380000 -42.945695 198.971002 -0.000000 0.389294 0.443584 -0.108070 -23.364149 249.319091 -0.000000 0.120720 0.204029 -0.350630
0.385000 -42.899952 198.806841 -0.000000 0.389252 0.443502 -0.108075 -23.439940 249.018886 -0.000000 0.120364 0.204182 -0.350640
0.390000 -42.823347 198.463538 -0.000000 0.389291 0.443418 -0.108282 -23.498542 248.658790 -0.000000 0.120005 0.204319 -0.350630
0.395000 -42.792508 197.936042 -0.000000 0.389309 0.443322 -0.108355 -23.595573 248.249837 -0.000000 0.119672 0.204411 -0.350643
0.400000 -42.816355 197.238796 -0.000000 0.389320 0.443224 -0.108369 -23.688425 247.821511 -0.000000 0.119367 0.204499 -0.350622
0.405000 -42.887615 196.401993 -0.000000 0.389320 0.443126 -0.108358 -23.708837 247.408975 -0.000000 0.119045 0.204638 -0.350578
0.410000 -43.029769 195.467231 -0.000000 0.389328 0.443012 -0.108298 -23.654541 247.037539 -0.000000 0.118722 0.204793 -0.350554
0.415000 -43.215055 194.502520 -0.000000 0.389352 0.442887 -0.108254 -23.496993 246.736787 -0.000000 0.118401 0.204987 -0.350545
0.420000 -43.436493 193.570930 -0.000000 0.389386 0.442762 -0.108191 -23.264046 246.523642 -0.000000 0.118067 0.205147 -0.350544
0.425000 -43.666539 192.723854 -0.000000 0.389422 0.442645 -0.108152 -22.971513 246.395698 -0.000000 0.117752 0.205312 -0.350540
